<svg width="136" height="82" viewBox="0 0 136 82" fill="none" xmlns="http://www.w3.org/2000/svg">
  <path d="M90.5771 64.7915C89.0344 64.9695 87.3434 65.0585 85.5041 65.0585C80.7574 65.0585 77.0788 63.5455 74.4681 60.5195C71.9168 57.4935 70.6411 53.2511 70.6411 47.7925V1.69047C70.6411 0.800467 71.0861 0.355469 71.9761 0.355469H79.6301C80.5201 0.355469 80.9651 0.800467 80.9651 1.69047V47.4365C80.9651 50.3438 81.4398 52.4501 82.3891 53.7555C83.3384 55.0015 84.8218 55.6245 86.8391 55.6245C87.5511 55.6245 88.6784 55.5651 90.2211 55.4465C91.1111 55.4465 91.5561 55.8915 91.5561 56.7815V63.3675C91.5561 64.2575 91.2298 64.7321 90.5771 64.7915Z" fill="white"/>
  <path d="M124.93 51.5305V19.1345C124.93 18.3038 125.375 17.8885 126.265 17.8885H133.919C134.809 17.8885 135.254 18.3038 135.254 19.1345V61.0535C135.254 74.8781 128.639 81.7905 115.407 81.7905C108.287 81.7905 102.473 79.9215 97.9634 76.1835C97.3108 75.7088 97.2217 75.1155 97.6964 74.4035L101.523 68.9745C101.998 68.2031 102.562 68.0548 103.214 68.5295C107.19 71.2588 111.224 72.6235 115.318 72.6235C118.641 72.6235 121.133 71.7335 122.794 69.9535C124.456 68.2328 125.197 65.2661 125.019 61.0535C121.578 62.1215 118.404 62.6555 115.496 62.6555C110.394 62.6555 105.944 61.0831 102.146 57.9385C98.3491 54.7345 96.4504 50.2548 96.4504 44.4995V19.1345C96.4504 18.3038 96.8954 17.8885 97.7854 17.8885H105.528C106.359 17.8885 106.774 18.3038 106.774 19.1345V44.0545C106.774 47.2585 107.724 49.6021 109.622 51.0855C111.521 52.5688 113.954 53.3105 116.92 53.3105C119.946 53.3698 122.616 52.7765 124.93 51.5305Z" fill="white"/>
  <path d="M2.759 21.538C7.32767 18.3933 13.1423 16.821 20.203 16.821C25.9583 16.821 30.4677 18.334 33.731 21.36C37.0537 24.3267 38.715 28.836 38.715 34.888V60.876C38.715 61.588 38.3887 62.0923 37.736 62.389C31.9807 64.169 26.0177 65.059 19.847 65.059C14.0917 65.059 9.345 63.8723 5.607 61.499C1.869 59.1257 0 55.358 0 50.196C0 45.5087 1.75033 41.9783 5.251 39.605C8.811 37.1723 13.5577 35.956 19.491 35.956C21.8643 35.956 24.831 36.1933 28.391 36.668V34.977C28.391 31.773 27.7087 29.4887 26.344 28.124C25.0387 26.7 22.7543 25.988 19.491 25.988C15.1003 25.988 11.303 26.9373 8.099 28.836C7.387 29.37 6.79367 29.2513 6.319 28.48L2.759 23.051C2.34367 22.3983 2.34367 21.894 2.759 21.538ZM10.413 50.107C10.413 52.1243 11.2733 53.6373 12.994 54.646C14.7147 55.5953 16.999 56.07 19.847 56.07C22.5763 56.07 25.4243 55.714 28.391 55.002V44.945C25.187 44.4703 22.3093 44.233 19.758 44.233C13.528 44.233 10.413 46.191 10.413 50.107Z" fill="#48FF9B"/>
  <path d="M58.4313 63.991H50.6883C49.7983 63.991 49.3533 63.546 49.3533 62.656V19.135C49.3533 18.3043 49.7983 17.889 50.6883 17.889H58.4313C59.2619 17.889 59.6773 18.3043 59.6773 19.135V62.656C59.6773 63.546 59.2619 63.991 58.4313 63.991ZM58.6983 1.691C59.8256 2.759 60.3893 4.12366 60.3893 5.785C60.3893 7.44633 59.8256 8.84066 58.6983 9.968C57.6303 11.0953 56.2656 11.659 54.6043 11.659C52.9429 11.659 51.5486 11.0953 50.4213 9.968C49.2939 8.84066 48.7303 7.44633 48.7303 5.785C48.7303 4.12366 49.2939 2.759 50.4213 1.691C51.5486 0.563665 52.9429 0 54.6043 0C56.2656 0 57.6303 0.563665 58.6983 1.691Z" fill="#48FF9B"/>
</svg>
